<svg width="404" height="48" xmlns="http://www.w3.org/2000/svg"><g fill="none" fill-rule="evenodd"><text font-family="BrandoSans-Light, Brando Sans" font-size="24" font-weight="300" fill="#56C271" transform="translate(0 -15)"><tspan x="197" y="41">frontend boilerplate</tspan></text><path d="M0-15h197v63H0z"/><g fill="#25282A"><path d="M46 1.4l-.3-.3H42l-.2.3V18c0 .1 0 .2.2.2h3.7c.1 0 .2 0 .2-.2V1.4zM102.4 1.4c0-.1 0-.3.2-.3h10.8l.2.1v3.2l-.2.2h-6.8s-.2 0-.2.2v3.1c0 .2.1.3.2.3h5.9c.1 0 .2 0 .2.2V11s0 .2-.2.2h-5.9l-.2.2v3.2l.2.2h7V18.2l-.2.1h-10.8a.2.2 0 0 1-.2-.2V1.4zM82.6 18v.1l-.2.1H79c-.2 0-.3 0-.3-.2l-1-2.6c0-.2-.1-.3-.3-.3h-6c-.2 0-.4.1-.4.3l-1 2.6-.2.2H66 66V18l6-16.6c0-.2.2-.3.3-.3h4s.2.1.2.3l6 16.6zM72 11.9v.1H76.4V12l-2-6h-.1-.1L72 12zM132.9 18v.1l-.2.1h-3.5c-.2 0-.3 0-.3-.2l-1-2.6c0-.2-.1-.3-.3-.3h-6.1c-.1 0-.3.1-.3.3l-1 2.6-.2.2h-3.6-.1V18l6-16.6c0-.2.2-.3.3-.3h4s.2.1.2.3l6 16.6zm-10.5-6.1a.1.1 0 0 0 .1.2H126.7v-.2l-2-6h-.1-.1l-2.1 6zM17.5 1.4l.3-.3H22l.2.2 5 11.4h.1l5-11.4.3-.2H37l.2.3V18c0 .1 0 .2-.2.2h-3.5a.2.2 0 0 1-.2-.2V8.2h-.1L28.7 18l-.3.1h-2l-.3-.1-4.5-10V18l-.3.2h-3.5a.2.2 0 0 1-.3-.2V1.4zM94.2 18.2h-8.7a.3.3 0 0 1-.3-.2V1.4l.3-.3h7.9c2.5 0 4.5 2.1 4.5 4.7 0 1.4-.7 2.8-1.7 3.6 1.5.8 2.5 2.3 2.5 4.2 0 2.5-2 4.6-4.5 4.6zm.7-5.1c0-.5-.2-1-.5-1.4-.4-.4-.8-.6-1.3-.6h-3.6c-.2 0-.3.1-.3.2v3.5c0 .1.1.2.3.2H93c.5 0 1-.2 1.3-.5.3-.4.5-1 .5-1.4zM94 6.3c0-1-.8-2-1.8-2h-2.7c-.2 0-.3.1-.3.3V8c0 .2.1.3.3.3h2.7c1 0 1.8-1 1.8-2zM145.6 11.7V1.4v-.2H149.7v10.1c0 4-3.1 7.3-7 7.3h-1c-4 0-7.1-3.3-7.1-7.3v-10l.2-.2h3.8l.1.1.1.2v10.3c0 1.9 1.5 3.4 3.4 3.4.9 0 1.7-.4 2.4-1 .6-.6 1-1.5 1-2.4zM166.6 18.5l-.1.1h-.2l-3.1-2.3-.1-.2v-.2l4-5.1v-.1l-.1-.1-6-1.7c-.2 0-.2 0-.2-.2v-.2l1.1-3.7.1-.1h.3l5.9 2.2.1-.1-.2-6.5V.1h4.2l.1.2-.3 6.5h.2l6-2.1h.1l.2.1 1.1 3.7v.2l-.1.2-6.1 1.7h-.1v.2l4 5v.3l-.1.2-3.1 2.3h-.2l-.2-.1-3.5-5.4h-.2l-3.5 5.4zM50.7 1.1h8c2.8 0 5 2.4 5 5.3 0 2.2-1.3 4.2-3.2 4.9a.1.1 0 0 0 0 .2A18400.5 18400.5 0 0 1 64 18l-.2.1H60c-.1 0-.2 0-.3-.2l-3.1-5.9-.3-.1h-1.5l-.2.2V18c0 .1 0 .2-.2.2h-3.7a.2.2 0 0 1-.2-.2V1.4c0-.2 0-.3.2-.3zm6.8 3.5h-2.6-.2V9l.2.1h2.6c1.2 0 2.1-1 2.1-2.2 0-1.2-1-2.2-2.1-2.2zM156.2 1h-.8v17.4h.8V1z"/><g fill-rule="nonzero"><path d="M20.6 25.7l-1.8 4.5h3.6l-1.8-4.5zm2.7 6.7l-.7-2h-3.9l-.8 2h-.4l3-7.1h.3l3 7.1h-.5zM26.8 28.8c0-2.1 1.6-3.6 3.7-3.6 1.5 0 2.4.8 2.9 1.7l-1.3.6c-.3-.5-.9-1-1.6-1-1.3 0-2.2 1-2.2 2.3 0 1.4 1 2.4 2.2 2.4.7 0 1.3-.5 1.6-1l1.3.6c-.5.9-1.4 1.7-3 1.7-2 0-3.6-1.5-3.6-3.7M37.8 29.8c0-.8-.5-1.5-1.3-1.5-.9 0-1.3.7-1.3 1.5s.4 1.5 1.3 1.5c.8 0 1.3-.7 1.3-1.5m-4 0c0-1.4 1-2.7 2.7-2.7 1.6 0 2.6 1.3 2.6 2.7 0 1.5-1 2.7-2.6 2.7-1.7 0-2.7-1.2-2.7-2.7M43.5 30.6v-1.7c-.3-.3-.7-.6-1.2-.6-.7 0-1.2.6-1.2 1.4 0 1 .5 1.5 1.2 1.5.5 0 1-.3 1.2-.6m-3.6 3.1l.6-1c.4.5 1 .7 1.6.7.6 0 1.4-.3 1.4-1.3v-.5a2 2 0 0 1-1.6.8c-1.2 0-2.2-1-2.2-2.7 0-1.6 1-2.6 2.2-2.6a2 2 0 0 1 1.6.8v-.7h1.3v4.9c0 2-1.5 2.4-2.7 2.4a3 3 0 0 1-2.2-.8M49.4 32.4v-3.1c0-.7-.4-1-1-1-.5 0-.9.3-1 .6v3.5H46v-5.2h1.3v.7c.3-.4 1-.8 1.8-.8 1 0 1.6.7 1.6 1.7v3.6h-1.3zM52 32.4h1.2v-5.2H52v5.2zm-.2-6.5c0-.5.3-.8.8-.8.4 0 .8.3.8.8 0 .4-.4.8-.8.8a.8.8 0 0 1-.8-.8zM54.2 32.4v-1l2.3-3h-2.3v-1.2h4.1v1l-2.3 3h2.3v1.2zM62.3 31.2v-.7c-.2-.3-.6-.4-1-.4-.5 0-1 .3-1 .7 0 .5.5.8 1 .8.4 0 .8-.1 1-.4zm0 1.2v-.5a2 2 0 0 1-1.5.6c-.8 0-1.8-.5-1.8-1.7s1-1.6 1.8-1.6c.6 0 1.2.2 1.5.6V29c0-.5-.4-.8-1-.8a2 2 0 0 0-1.5.6l-.5-1c.6-.5 1.4-.8 2.2-.8 1.1 0 2.2.5 2.2 2v3.3h-1.4zM68.3 32.4v-3.1c0-.7-.4-1-1-1-.5 0-.9.3-1.1.6v3.5h-1.3v-5.2h1.3v.7c.3-.4 1-.8 1.8-.8 1 0 1.6.7 1.6 1.7v3.6h-1.3zM71 31.1v-2.7h-.8v-1.2h.9v-1.4h1.3v1.4h1v1.2h-1v2.3c0 .4.2.6.4.6l.5-.1.3 1c-.2.2-.6.3-1.1.3-1 0-1.4-.5-1.4-1.4M81.7 28.8c0-1.2-.7-2.2-2.1-2.2h-1.3v4.5h1.2c1.4 0 2.2-1 2.2-2.3zm-4.9 3.6v-7.1h2.7c2.2 0 3.7 1.4 3.7 3.5 0 2.2-1.5 3.6-3.6 3.6h-2.8zM84.1 32.4h1.4v-5.2H84v5.2zm0-6.5c0-.5.3-.8.7-.8.4 0 .8.3.8.8 0 .4-.4.8-.8.8a.8.8 0 0 1-.8-.8zM90.1 30.6v-1.7c-.2-.3-.7-.6-1.1-.6-.8 0-1.3.6-1.3 1.4 0 1 .5 1.5 1.3 1.5.4 0 .9-.3 1.1-.6m-3.5 3.1l.6-1c.4.5 1 .7 1.5.7.7 0 1.4-.3 1.4-1.3v-.5a2 2 0 0 1-1.5.8c-1.3 0-2.2-1-2.2-2.7 0-1.6.9-2.6 2.2-2.6a2 2 0 0 1 1.5.8v-.7h1.4v4.9c0 2-1.5 2.4-2.8 2.4a3 3 0 0 1-2.1-.8M92.7 32.4H94v-5.2h-1.3v5.2zm-.2-6.5c0-.5.4-.8.8-.8.5 0 .8.3.8.8 0 .4-.3.8-.8.8a.8.8 0 0 1-.8-.8zM95.5 31.1v-2.7h-.9v-1.2h.9v-1.4h1.3v1.4h1v1.2h-1v2.3c0 .4.1.6.4.6l.5-.1.3 1c-.2.2-.6.3-1.1.3-1 0-1.4-.5-1.4-1.4M101.6 31.2v-.7c-.2-.3-.6-.4-1-.4-.6 0-1 .3-1 .7 0 .5.4.8 1 .8.4 0 .8-.1 1-.4zm0 1.2v-.5a2 2 0 0 1-1.6.6c-.8 0-1.7-.5-1.7-1.7s1-1.6 1.7-1.6 1.3.2 1.6.6V29c0-.5-.4-.8-1-.8a2 2 0 0 0-1.5.6l-.5-1c.6-.5 1.4-.8 2.1-.8 1.2 0 2.3.5 2.3 2v3.3h-1.4zM104.1 25.3h1.3v7h-1.3zM113.6 30.3c0-.5-.4-.9-1-.9h-1.8v1.7h1.9c.5 0 .9-.3.9-.8zm-.2-3c0-.4-.3-.7-.8-.7h-1.8v1.5h1.8c.5 0 .8-.3.8-.7zm-4.1 5.1v-7.1h3.6c1.4 0 2 .9 2 1.8s-.5 1.5-1.2 1.6c.8.1 1.4.9 1.4 1.8 0 1-.7 1.9-2 1.9h-3.8zM119.4 32.4v-.7c-.3.4-1 .8-1.7.8-1.1 0-1.7-.6-1.7-1.6v-3.7h1.4v3.2c0 .7.3 1 .9 1 .5 0 1-.4 1.1-.7v-3.5h1.4v5.2h-1.4zM121.5 31.7l.6-1c.4.4 1.1.8 1.7.8.6 0 .9-.3.9-.6 0-.8-3-.1-3-2.2 0-.8.7-1.6 2-1.6 1 0 1.6.3 2 .7l-.4 1c-.3-.3-1-.6-1.5-.6s-.8.2-.8.5c0 .7 3 .1 3 2.2 0 1-.8 1.6-2.2 1.6-.9 0-1.7-.3-2.3-.8M126.8 32.4h1.3v-5.2h-1.3v5.2zm-.1-6.5c0-.5.4-.8.8-.8s.8.3.8.8c0 .4-.4.8-.8.8a.8.8 0 0 1-.8-.8zM132.7 32.4v-3.1c0-.7-.3-1-.9-1-.5 0-.9.3-1.1.6v3.5h-1.3v-5.2h1.3v.7c.3-.4 1-.8 1.7-.8 1.1 0 1.7.7 1.7 1.7v3.6h-1.4zM137.6 28.2c-.9 0-1.2.6-1.3 1.1h2.5c0-.5-.4-1-1.2-1m-2.6 1.5c0-1.5 1-2.7 2.6-2.7 1.5 0 2.5 1.2 2.5 2.8v.4h-3.8c.1.6.6 1.1 1.5 1.1.4 0 1-.2 1.3-.5l.6 1a3 3 0 0 1-2 .6c-1.6 0-2.7-1-2.7-2.7M140.5 31.7l.6-1c.3.4 1 .8 1.7.8.6 0 .8-.3.8-.6 0-.8-3-.1-3-2.2 0-.8.8-1.6 2.1-1.6.9 0 1.5.3 2 .7l-.5 1c-.3-.3-.9-.6-1.5-.6-.5 0-.8.2-.8.5 0 .7 3 .1 3 2.2 0 1-.8 1.6-2.2 1.6-.8 0-1.7-.3-2.2-.8M146 30.7c.3.4 1 .8 1.7.8.5 0 .8-.3.8-.6 0-.8-3-.1-3-2.2 0-.8.8-1.6 2-1.6 1 0 1.6.3 2.1.7l-.5 1c-.3-.3-.9-.6-1.5-.6-.5 0-.8.2-.8.5 0 .7 3 .1 3 2.2 0 1-.8 1.6-2.2 1.6-.9 0-1.7-.3-2.3-.8l.6-1z"/></g></g><path fill-opacity=".3" fill="#25282A" d="M0 48h404v-1H0z"/></g></svg>