<svg width="456" height="127" xmlns="http://www.w3.org/2000/svg"><g fill="none" fill-rule="evenodd"><path d="M6 41.4h3V17.2h7.6v-2.5H9V8.5c0-4.5 1.7-6 5-6 1.5 0 2.6.3 3.3.5h.4V.4A16 16 0 0 0 14 0C8.8 0 6 2.6 6 8.4v6.3H1v2.5h5v24.2zm15.8 0h3.1V20.7a9 9 0 0 1 7.4-3.5c1 0 1.8 0 2.3.3h.4v-3l-2.5-.2a9 9 0 0 0-7.3 3.6h-.3v-3.2h-3.1v26.7zm28 .5c-7.6 0-12-5.5-12-13.6C37.8 19.8 42.4 14 50 14c7.6 0 12 5.4 12 13.6 0 8.5-4.6 14.2-12.1 14.2zm.1-2.6c5.7 0 8.6-4.2 8.6-11.3 0-7-3-11.4-8.7-11.4C44 16.6 41 21 41 28c0 7 3 11.3 8.8 11.3zm19.4 2h3.2V20c1.8-1.8 5-3.2 8-3.2 4 0 6 1.7 6 5.8v18.8h3.2V21.7c0-5-2.9-7.6-8.1-7.6-3.7 0-7 1.5-9 3.3h-.1v-2.7h-3.2v26.7zm37.2.6c2.2 0 4-.4 4.7-.7v-2.5h-.3c-1 .3-2.2.5-3.5.5-3 0-4-1.1-4-4.3V17.2h7.8v-2.5h-7.9V8h-3.1v6.6h-5v2.5h5v18c0 4.7 2.2 6.7 6.3 6.7zM127.2 14c6.7 0 10 5.2 10 11.6L137 28h-18.7c.1 7.7 3.4 11.1 10.3 11.1 2.7 0 5.7-.7 7.1-1.5h.4v2.5c-1.3.8-4.3 1.7-8 1.7-8.6 0-13-5-13-13.8 0-8.5 4.4-14 12-14zm-.1 2.5c-5 0-8.1 3.1-8.6 9.2H134c0-5.5-2.2-9.2-7-9.2zm17.4 24.8h3.2V20c1.9-1.8 5-3.2 8.1-3.2 4 0 6 1.7 6 5.8v18.8h3.1V21.7c0-5-2.8-7.6-8-7.6-3.7 0-7 1.5-9 3.3h-.2v-2.7h-3.2v26.7zm46.4 0v-2.7h-.2a9.6 9.6 0 0 1-7.4 3.2c-6.7 0-11-4.9-11-13 0-9.3 5.3-14.8 14.3-14.8 1.9 0 3.6.4 4.3.7V.4h3.2v41h-3.2zm-15.4-12.7c0 7.1 3.5 10.4 8.4 10.4 3.4 0 5.7-1.4 7-3V17.1a12 12 0 0 0-4.2-.6c-7 0-11.2 4.1-11.2 12.1zm40.6 12.7V.4h3.2V16c1.5-1 4-1.9 6.8-1.9 7.3 0 11.7 4.6 11.7 12.9 0 9-5 14.3-14.1 14.3H216zm3.2-2.6h4.2c7 0 11-3.4 11-11.4 0-7-3.2-10.6-9.2-10.6-2.3 0-4.4.7-6 1.5v20.5zm35.8 3c-7.6 0-12-5.4-12-13.5 0-8.5 4.6-14.2 12-14.2 7.7 0 12 5.4 12 13.6 0 8.5-4.5 14.2-12 14.2zm0-2.5c5.7 0 8.7-4.2 8.7-11.3 0-7-3-11.4-8.7-11.4-5.7 0-8.7 4.3-8.7 11.4 0 7 3 11.3 8.8 11.3zm19.4 2h3.2V14.8h-3.2v26.7zm1.7-33.1c1.4 0 2.3-.8 2.3-2.3 0-1.5-1-2.4-2.3-2.4-1.4 0-2.3.9-2.3 2.4s.9 2.3 2.3 2.3zm16.4 33.5a13 13 0 0 0 3.6-.4v-2.6h-.4c-.6.3-1.3.4-2.3.4-2 0-3-.9-3-3.6V.4h-3.2v35.5c0 4.1 1.9 5.8 5.3 5.8zm18.8-27.6c6.8 0 10 5.2 10 11.6V28h-18.7c0 7.7 3.3 11.1 10.2 11.1 2.8 0 5.8-.7 7.2-1.5h.3v2.5c-1.3.8-4.3 1.7-8 1.7-8.6 0-13-5-13-13.8 0-8.5 4.5-14 12-14zm0 2.5c-5.1 0-8.1 3.1-8.7 9.2h15.5c0-5.5-2.1-9.2-6.9-9.2zm17.4 24.8h3.2V20.7a9 9 0 0 1 7.3-3.5c1 0 1.8 0 2.3.3h.4v-3l-2.5-.2a9 9 0 0 0-7.3 3.6h-.2v-3.2h-3.2v26.7zM347.2 54V14.7h3.2v2.6h.2a9.7 9.7 0 0 1 7.4-3.2c6.7 0 11.1 4.9 11.1 13 0 9.3-5.4 14.8-14.4 14.8a14 14 0 0 1-4.3-.6V54h-3.2zm18.6-26.7c0-7-3.5-10.5-8.4-10.5a8.8 8.8 0 0 0-7 3.2v18.8c.9.3 2.4.5 4.3.5 6.9 0 11.1-4 11.1-12zm16 14.4a13 13 0 0 0 3.6-.4v-2.6h-.4c-.6.3-1.3.4-2.3.4-2 0-3-.9-3-3.6V.4h-3.2v35.5c0 4.1 1.8 5.8 5.3 5.8zm23.6-.3v-2.7h-.2a11 11 0 0 1-7.9 3.2c-5.2 0-8.2-3.1-8.2-7.3 0-5.4 4.2-8 10.6-8h5.6V23c0-4.5-1.9-6.2-6.8-6.2-3 0-5.9.6-7.2 1.4h-.3v-2.6c1.6-.8 4.7-1.4 8-1.4 6.8 0 9.4 2.6 9.4 8.3v19h-3zm-13.1-7c0 3.2 2.1 5 5.6 5 3.3 0 6.3-1.8 7.4-3.4v-7H400c-5 0-7.7 1.7-7.7 5.4zm33 7.5c2.2 0 4-.4 4.7-.7v-2.5h-.3c-.9.3-2.2.5-3.5.5-3 0-4-1.1-4-4.3V17.2h7.8v-2.5h-7.9V8h-3v6.6h-5v2.5h5v18c0 4.7 2.1 6.7 6.2 6.7zM446 14c6.8 0 10 5.2 10 11.6l-.1 2.4h-18.6c0 7.7 3.3 11.1 10.2 11.1 2.7 0 5.8-.7 7.2-1.5h.3v2.5c-1.3.8-4.3 1.7-8 1.7-8.6 0-13-5-13-13.8 0-8.5 4.4-14 12-14zm-.1 2.5c-5 0-8 3.1-8.6 9.2h15.5c0-5.5-2.2-9.2-7-9.2z" fill="#25282A"/><path fill="#050506" fill-rule="nonzero" d="M0 80.5h96V80H0z"/><path d="M6.4 127v-4.2c-.5.3-1.2.6-2 .6-2.1 0-3.4-1.4-3.4-3.8 0-2.7 1.5-4.3 4.1-4.3h2.2V127h-1zM2 119.4c0 2.2.9 3.2 2.6 3.2.7 0 1.3-.2 1.8-.4V116H5.2c-2 0-3.2 1-3.2 3.3zm10.4 4c1 0 2-.4 2.6-1v.9h1v-8h-1v6.4c-.4.5-1.4 1-2.3 1-1.1 0-1.7-.6-1.7-1.8v-5.6h-1v5.9c0 1.4.9 2.2 2.4 2.2zm6.4-.1h1v-8h-1v8zm.5-9.9c.4 0 .6-.2.6-.7 0-.4-.2-.7-.6-.7-.4 0-.7.3-.7.7 0 .5.3.7.7.7zm2.6 6c0 2.5 1.4 4 3.7 4 1 0 1.8-.3 2.1-.5v-.7a4 4 0 0 1-2 .4c-1.7 0-2.9-1-2.9-3.3 0-2.2 1-3.4 2.8-3.4.9 0 1.5.2 1.9.5v-.7c-.3-.3-1-.5-2-.5-2.1 0-3.6 1.6-3.6 4.2zm7.8 3.9h.9V111h-1v12.2zm1-4.2l4 4.2h1l-3.9-4.3 3.6-3.7h-1l-3.7 3.8zm8 4.3c2 0 3-.9 3-2.3 0-1.5-1.2-2-2.4-2.3-.9-.3-1.7-.6-1.7-1.6 0-.8.5-1.3 1.8-1.3.9 0 1.6.2 2 .5h.1v-.8c-.4-.2-1.2-.4-2.2-.4-1.7 0-2.6.8-2.6 2 0 1.6 1 2 2.3 2.4.9.3 1.8.6 1.8 1.6s-.6 1.5-2 1.5c-1 0-1.8-.3-2.2-.5v.7c.4.3 1.2.5 2.2.5zm7.2 0a4 4 0 0 0 1.4-.2v-.7a3 3 0 0 1-1.1.1c-.9 0-1.2-.3-1.2-1.3v-5.2h2.3v-.8H45v-1.9h-.9v2h-1.4v.7H44v5.3c0 1.4.6 2 1.8 2zm7.4-.1v-.8c-.5.4-1.3 1-2.4 1-1.5 0-2.4-1-2.4-2.3 0-1.5 1.3-2.3 3-2.3h1.7v-1.1c0-1.3-.5-1.8-2-1.8-.8 0-1.7.1-2 .4H49v-.8c.4-.2 1.3-.4 2.3-.4 2 0 2.8.8 2.8 2.4v5.7h-1zm-3.9-2.1c0 1 .7 1.5 1.7 1.5s1.8-.6 2.1-1v-2.1h-1.5c-1.4 0-2.3.5-2.3 1.6zm7.5 2h1v-6a2.4 2.4 0 0 1 2.8-1v-.9H60c-1 0-1.7.4-2.1 1v-1h-1v8zm7.5.2a4 4 0 0 0 1.4-.2v-.7a3 3 0 0 1-1.1.1c-.9 0-1.2-.3-1.2-1.3v-5.2h2.3v-.8h-2.3v-1.9h-.9v2h-1.4v.7h1.4v5.3c0 1.4.6 2 1.8 2zm6.8-.1h1v-6.4c.5-.5 1.4-1 2.3-1 1.2 0 1.7.6 1.7 1.8v5.6h1v-5.9c0-1.4-.9-2.2-2.4-2.2-1 0-2 .4-2.6 1v-.9h-1v8zm11.6-8.1c2 0 2.9 1.5 2.9 3.4v.7h-5.5c0 2.3 1 3.3 3 3.3.8 0 1.7-.2 2.1-.4h.1v.7c-.4.3-1.3.5-2.3.5-2.5 0-3.8-1.5-3.8-4 0-2.6 1.3-4.2 3.5-4.2zm0 .7c-1.5 0-2.4 1-2.6 2.8h4.6c0-1.7-.7-2.8-2-2.8zm6.5 7.4h.9l1.5-5.1.5-1.8.6 1.8 1.5 5h1l2.5-7.9h-1l-1.5 5.4-.5 1.5-.5-1.5-1.6-5.4h-.9l-1.6 5.4-.4 1.5-.5-1.5-1.6-5.4h-1l2.6 8zm14.1 0h1V116h2.1v-.8h-2.1v-1.8c0-1.3.5-1.7 1.4-1.7h1.1v-.7l-1.1-.1c-1.5 0-2.4.8-2.4 2.5v1.8H102v.8h1.4v7.2zm4.7 0h.9V117c.4-.6 1.3-1 2.1-1H112v-.8h-.7c-1 0-1.8.4-2.2 1v-1h-1v8zm8.1.1c-2.2 0-3.5-1.6-3.5-4 0-2.5 1.4-4.2 3.5-4.2 2.3 0 3.5 1.6 3.5 4 0 2.5-1.3 4.2-3.5 4.2zm0-.7c1.7 0 2.6-1.3 2.6-3.4 0-2-1-3.4-2.6-3.4s-2.5 1.3-2.5 3.4c0 2 .9 3.4 2.5 3.4zm5.7.6h1v-6.4c.4-.5 1.4-1 2.3-1 1.1 0 1.7.6 1.7 1.8v5.6h1v-5.9c0-1.4-.9-2.2-2.4-2.2-1 0-2 .4-2.6 1v-.9h-1v8zm10.8.1a4 4 0 0 0 1.4-.2v-.7h-.1a3 3 0 0 1-1 .1c-.9 0-1.2-.3-1.2-1.3v-5.2h2.3v-.8h-2.3v-1.9h-1v2h-1.3v.7h1.4v5.3c0 1.4.6 2 1.8 2zm6-8.2c2 0 3 1.5 3 3.4v.7h-5.5c0 2.3 1 3.3 3 3.3.8 0 1.7-.2 2-.4h.2v.7c-.4.3-1.3.5-2.4.5-2.5 0-3.8-1.5-3.8-4 0-2.6 1.3-4.2 3.5-4.2zm0 .7c-1.5 0-2.3 1-2.5 2.8h4.5c0-1.7-.6-2.8-2-2.8zm5 7.4h1v-6.4c.6-.5 1.5-1 2.4-1 1.2 0 1.7.6 1.7 1.8v5.6h1v-5.9c0-1.4-.9-2.2-2.4-2.2-1 0-2 .4-2.6 1v-.9h-1v8zm13.6 0v-.8c-.4.4-1.1 1-2.2 1-2 0-3.2-1.5-3.2-4 0-2.7 1.5-4.3 4.2-4.3.5 0 1 0 1.2.2V111h1v12.2h-1zm-4.5-3.8c0 2.1 1 3 2.5 3 1 0 1.6-.3 2-.8V116l-1.2-.2c-2 0-3.3 1.2-3.3 3.6zm11.2 0c0 2.4 1.4 4 3.7 4 1 0 1.8-.4 2.2-.6v-.7h-.1a4 4 0 0 1-2 .4c-1.7 0-2.8-1-2.8-3.3 0-2.2 1-3.4 2.7-3.4.9 0 1.5.2 2 .5v-.7c-.4-.3-1-.5-2-.5-2.2 0-3.7 1.6-3.7 4.2zm10.5 4c-2.2 0-3.5-1.7-3.5-4.1 0-2.5 1.4-4.2 3.5-4.2 2.3 0 3.5 1.6 3.5 4 0 2.5-1.3 4.2-3.5 4.2zm0-.8c1.7 0 2.6-1.3 2.6-3.4 0-2-1-3.4-2.6-3.4s-2.5 1.3-2.5 3.4c0 2 .9 3.4 2.5 3.4zm10.5.6v-.8c-.4.4-1.1 1-2.2 1-2 0-3.2-1.5-3.2-4 0-2.7 1.5-4.3 4.2-4.3.5 0 1 0 1.2.2V111h1v12.2h-1zm-4.5-3.8c0 2.1 1 3 2.5 3 1 0 1.6-.3 2-.8V116l-1.2-.2c-2 0-3.3 1.2-3.3 3.6zm11-4.3c2 0 3 1.5 3 3.4v.7H189c0 2.3 1 3.3 3 3.3.8 0 1.7-.2 2.1-.4h.1v.7c-.4.3-1.2.5-2.3.5-2.5 0-3.8-1.5-3.8-4 0-2.6 1.3-4.2 3.5-4.2zm0 .7c-1.4 0-2.3 1-2.4 2.8h4.5c0-1.7-.7-2.8-2-2.8zm5.1 7.4V111h1v4.7c.4-.3 1.1-.6 2-.6 2 0 3.4 1.4 3.4 3.8 0 2.7-1.5 4.3-4.1 4.3h-2.3zm1-.8h1.2c2 0 3.2-1 3.2-3.4 0-2-1-3.1-2.7-3.1-.6 0-1.3.2-1.7.4v6.1zm11.8.8v-.8c-.4.4-1.3 1-2.4 1-1.5 0-2.3-1-2.3-2.3 0-1.5 1.2-2.3 3-2.3h1.7v-1.1c0-1.3-.6-1.8-2-1.8-.9 0-1.7.1-2.1.4h-.1v-.8c.5-.2 1.4-.4 2.3-.4 2 0 2.8.8 2.8 2.4v5.7h-1zm-3.8-2.1c0 1 .6 1.5 1.6 1.5s1.9-.6 2.2-1v-2.1h-1.6c-1.4 0-2.2.5-2.2 1.6zm9 2.2c2 0 3-.9 3-2.3 0-1.5-1.3-2-2.5-2.3-.9-.3-1.7-.6-1.7-1.6 0-.8.6-1.3 1.8-1.3.9 0 1.7.2 2 .5h.1v-.8c-.4-.2-1.2-.4-2.2-.4-1.7 0-2.6.8-2.6 2 0 1.6 1 2 2.3 2.4 1 .3 1.8.6 1.8 1.6s-.6 1.5-2 1.5c-1 0-1.8-.3-2.1-.5h-.2v.7c.5.3 1.3.5 2.3.5zm7.9-8.2c2 0 2.9 1.5 2.9 3.4v.7h-5.5c0 2.3 1 3.3 3 3.3.8 0 1.7-.2 2.1-.4v.7c-.3.3-1.2.5-2.2.5-2.5 0-3.8-1.5-3.8-4 0-2.6 1.3-4.2 3.5-4.2zm0 .7c-1.5 0-2.4 1-2.6 2.8h4.6c0-1.7-.7-2.8-2-2.8zm6.6 7.5c2 0 2.9-.9 2.9-2.3 0-1.5-1.2-2-2.4-2.3-1-.3-1.8-.6-1.8-1.6 0-.8.6-1.3 1.9-1.3.9 0 1.6.2 2 .5h.1v-.8c-.4-.2-1.2-.4-2.2-.4-1.7 0-2.6.8-2.6 2 0 1.6 1 2 2.3 2.4.9.3 1.8.6 1.8 1.6s-.6 1.5-2 1.5c-1 0-1.8-.3-2.2-.5v.7c.3.3 1.2.5 2.2.5z" fill="#25282A"/></g></svg>
