<svg width="220" height="47" viewBox="0 0 220 47" xmlns="http://www.w3.org/2000/svg"><title>Group</title><g fill="#000" fill-rule="evenodd"><path d="M38.486 2.705a.327.327 0 0 0-.327-.326h-4.98a.326.326 0 0 0-.327.326v21.878c0 .18.146.326.327.326h4.98c.18 0 .327-.146.327-.326V2.705zm76.249 0c0-.18.147-.326.327-.326h14.635a.33.33 0 0 1 .232.095.33.33 0 0 1 .095.231v3.854a.328.328 0 0 1-.327.326h-9.168a.294.294 0 0 0-.295.293v4.16c0 .163.132.294.295.294h7.88c.18 0 .327.146.327.327v3.37c0 .18-.146.327-.326.327h-7.881a.294.294 0 0 0-.295.293v4.16c0 .163.132.294.295.294h9.168a.327.327 0 0 1 .327.326v3.854a.328.328 0 0 1-.327.326h-14.635a.327.327 0 0 1-.327-.326V2.705zM88.021 24.601a.228.228 0 0 1-.027.21.227.227 0 0 1-.187.098h-4.792a.456.456 0 0 1-.43-.304l-1.231-3.466a.456.456 0 0 0-.431-.303h-8.288a.456.456 0 0 0-.43.303l-1.231 3.466a.456.456 0 0 1-.431.304h-4.791a.23.23 0 0 1-.189-.098.232.232 0 0 1-.025-.21l8.18-21.925a.459.459 0 0 1 .428-.297h5.267c.19 0 .36.118.427.297L88.02 24.6zm-14.187-8.05a.2.2 0 0 0 .024.178.197.197 0 0 0 .16.083h5.522a.196.196 0 0 0 .185-.26l-2.792-7.863a.165.165 0 0 0-.154-.108.16.16 0 0 0-.153.108l-2.792 7.862zm82.156 8.05a.227.227 0 0 1-.215.308h-4.79a.458.458 0 0 1-.432-.304l-1.23-3.466a.46.46 0 0 0-.43-.303h-8.289a.458.458 0 0 0-.431.303l-1.23 3.466a.46.46 0 0 1-.43.304h-4.793a.227.227 0 0 1-.187-.098.228.228 0 0 1-.027-.21l8.181-21.925a.456.456 0 0 1 .428-.297h5.266c.192 0 .362.118.428.297l8.18 21.925zm-14.187-8.05a.196.196 0 0 0 .183.261h5.522a.195.195 0 0 0 .185-.261l-2.792-7.862a.162.162 0 0 0-.153-.108.164.164 0 0 0-.154.108l-2.79 7.862zM.117 2.705c0-.18.147-.326.327-.326h5.78c.13 0 .25.078.3.198l6.828 15.09c.011.024.034.04.06.04.027 0 .05-.016.06-.04L20.3 2.577a.328.328 0 0 1 .301-.198h5.781c.18 0 .327.146.327.326v21.878c0 .18-.147.326-.327.326h-4.715a.326.326 0 0 1-.325-.326V11.677a.066.066 0 0 0-.053-.064.066.066 0 0 0-.073.039l-6.081 13.06a.328.328 0 0 1-.301.197h-2.84a.328.328 0 0 1-.302-.197L5.61 11.652a.067.067 0 0 0-.074-.039.066.066 0 0 0-.052.064v12.906c0 .18-.146.326-.326.326H.444a.327.327 0 0 1-.327-.326V2.705zm103.608 22.204H91.943a.349.349 0 0 1-.245-.1.349.349 0 0 1-.1-.245V2.724c0-.19.155-.346.345-.346h10.655a6.117 6.117 0 0 1 6.115 6.116 6.106 6.106 0 0 1-2.32 4.795 6.116 6.116 0 0 1-2.668 11.62zm.962-6.8c0-.668-.266-1.374-.737-1.846a2.514 2.514 0 0 0-1.778-.737h-4.856c-.165 0-.3.137-.3.303v4.56c0 .166.135.302.3.302h4.856c.667 0 1.306-.266 1.778-.737.471-.472.737-1.178.737-1.845zm-1.194-8.927c0-1.388-1.125-2.58-2.515-2.58h-3.662a.3.3 0 0 0-.3.302v4.559c0 .167.135.302.3.302h3.662c1.39 0 2.515-1.192 2.515-2.583zm69.639 7.072V2.686a.307.307 0 0 1 .095-.212.309.309 0 0 1 .23-.1h5.045c.087 0 .17.034.231.1.061.06.096.14.096.226v13.03c0 5.334-4.323 9.66-9.656 9.66h-1.344c-5.333 0-9.523-4.326-9.523-9.66V2.7c0-.087.034-.166.095-.226a.31.31 0 0 1 .231-.1h5.044a.31.31 0 0 1 .231.1c.061.06.096.14.096.226v13.554a4.564 4.564 0 0 0 4.564 4.565 4.568 4.568 0 0 0 4.565-4.565zm28.48 9.006a.356.356 0 0 1-.234.155.344.344 0 0 1-.273-.065l-4.162-3.02a.36.36 0 0 1-.071-.512l5.292-6.741a.144.144 0 0 0 .025-.137.152.152 0 0 0-.102-.097l-8.212-2.262a.34.34 0 0 1-.22-.175.355.355 0 0 1-.025-.279l1.59-4.894a.345.345 0 0 1 .183-.207.348.348 0 0 1 .279-.013l8.006 2.93c.046.02.099.006.139-.02a.156.156 0 0 0 .061-.13l-.35-8.484a.368.368 0 0 1 .1-.266.352.352 0 0 1 .257-.11h5.145c.097 0 .19.039.257.11a.368.368 0 0 1 .1.266l-.353 8.478a.156.156 0 0 0 .061.13c.04.026.092.032.139.02l8.009-2.924a.348.348 0 0 1 .279.013.345.345 0 0 1 .182.207l1.59 4.894a.354.354 0 0 1-.025.279.34.34 0 0 1-.219.175l-8.22 2.269a.153.153 0 0 0-.103.097.162.162 0 0 0 .024.143l5.302 6.728a.36.36 0 0 1-.07.512l-4.163 3.02a.355.355 0 0 1-.507-.09l-4.731-7.143a.153.153 0 0 0-.125-.065.153.153 0 0 0-.124.065l-4.73 7.143zM44.949 2.375h10.697a6.933 6.933 0 0 1 6.933 6.933 6.926 6.926 0 0 1-4.47 6.482.136.136 0 0 0-.069.192c.62 1.101 4.82 8.578 4.82 8.578.04.073.04.16-.002.233a.241.241 0 0 1-.2.112h-5.172a.44.44 0 0 1-.39-.232l-4.263-7.769a.4.4 0 0 0-.349-.205h-1.96a.294.294 0 0 0-.269.291v7.59c0 .18-.145.325-.326.325h-4.98a.326.326 0 0 1-.326-.325V2.7c0-.18.146-.325.326-.325zm9.125 4.504H50.55a.303.303 0 0 0-.208.087.31.31 0 0 0-.086.212v5.281c0 .08.031.153.086.212.055.053.13.087.208.087h3.525a2.94 2.94 0 0 0 2.937-2.94 2.94 2.94 0 0 0-2.937-2.939z"/><path d="M4.292 34.76l-2.447 5.92h4.893l-2.446-5.92zm3.655 8.859l-1.04-2.516h-5.23L.635 43.619h-.52l3.909-9.379h.534l3.909 9.379h-.52zm4.658-4.682c0-2.896 2.18-4.851 5.005-4.851 2.052 0 3.248 1.11 3.91 2.292l-1.717.844c-.393-.76-1.237-1.365-2.193-1.365-1.716 0-2.953 1.308-2.953 3.08 0 1.771 1.237 3.08 2.953 3.08.956 0 1.8-.606 2.193-1.365l1.717.83c-.662 1.167-1.858 2.305-3.91 2.305-2.826 0-5.005-1.967-5.005-4.85m14.822 1.279c0-1.054-.62-1.968-1.744-1.968-1.11 0-1.73.914-1.73 1.968 0 1.07.62 1.983 1.73 1.983 1.125 0 1.744-.914 1.744-1.983m-5.33 0c0-1.926 1.35-3.558 3.586-3.558 2.25 0 3.6 1.632 3.6 3.558 0 1.927-1.35 3.571-3.6 3.571-2.236 0-3.586-1.644-3.586-3.571m13.051.998v-2.207c-.31-.435-.956-.759-1.533-.759-1.026 0-1.73.703-1.73 1.87 0 1.167.704 1.87 1.73 1.87.577 0 1.223-.337 1.533-.774m-4.809 4.149l.802-1.28c.548.591 1.28.83 2.123.83.857 0 1.884-.366 1.884-1.744v-.66c-.534.674-1.265 1.054-2.109 1.054-1.687 0-2.995-1.181-2.995-3.445 0-2.221 1.28-3.46 2.995-3.46.816 0 1.56.338 2.109 1.04v-.87h1.786v6.341c0 2.573-1.997 3.206-3.67 3.206-1.153 0-2.067-.267-2.925-1.012M43.15 43.62v-4.107c0-.941-.492-1.265-1.252-1.265-.702 0-1.237.393-1.546.787v4.585h-1.785v-6.793h1.785v.873c.436-.507 1.28-1.042 2.376-1.042 1.505 0 2.222.844 2.222 2.166v4.796h-1.8zm3.42 0h1.785v-6.793h-1.786v6.793zm-.17-8.592c0-.59.478-1.055 1.055-1.055.59 0 1.068.464 1.068 1.055 0 .59-.478 1.069-1.068 1.069a1.066 1.066 0 0 1-1.055-1.069zm3.29 8.592v-1.336l3.067-3.896H49.69v-1.56h5.498v1.28l-3.121 3.95h3.177v1.562zm10.97-1.632v-.843c-.295-.394-.857-.605-1.434-.605-.703 0-1.279.379-1.279 1.026s.576 1.012 1.279 1.012c.577 0 1.14-.196 1.434-.59zm0 1.63v-.716c-.464.562-1.265.885-2.151.885-1.083 0-2.348-.73-2.348-2.249 0-1.604 1.265-2.194 2.348-2.194.914 0 1.701.296 2.15.83v-.857c0-.69-.59-1.14-1.489-1.14-.718 0-1.393.282-1.955.802l-.703-1.252c.83-.745 1.898-1.068 2.968-1.068 1.56 0 2.98.619 2.98 2.573v4.387h-1.8zm8.002.002v-4.107c0-.941-.492-1.265-1.25-1.265-.704 0-1.238.394-1.547.787v4.585h-1.787v-6.793h1.787v.873c.435-.507 1.279-1.041 2.376-1.041 1.505 0 2.222.843 2.222 2.165v4.796h-1.8zm3.785-1.703v-3.53h-1.124v-1.56h1.124v-1.856h1.786v1.856h1.378v1.56h-1.378v3.052c0 .437.225.76.618.76.267 0 .521-.098.619-.21l.38 1.363c-.267.239-.745.437-1.49.437-1.252 0-1.913-.647-1.913-1.872m14.4-2.994c0-1.645-1.012-2.925-2.925-2.925h-1.715v5.864h1.7c1.857 0 2.94-1.336 2.94-2.939zM80.21 43.62v-9.38h3.698c2.94 0 4.978 1.87 4.978 4.683 0 2.84-2.039 4.697-4.964 4.697H80.21zm9.914 0h1.787v-6.793h-1.787v6.793zm-.168-8.592c0-.59.478-1.055 1.055-1.055.59 0 1.068.464 1.068 1.055 0 .59-.478 1.069-1.068 1.069a1.066 1.066 0 0 1-1.055-1.069zm8.254 6.187v-2.208c-.309-.435-.956-.759-1.532-.759-1.027 0-1.73.703-1.73 1.87 0 1.168.703 1.87 1.73 1.87.576 0 1.223-.337 1.533-.773m-4.81 4.148l.802-1.28c.548.591 1.28.83 2.124.83.856 0 1.884-.366 1.884-1.743v-.661c-.534.675-1.266 1.054-2.11 1.054-1.687 0-2.995-1.181-2.995-3.445 0-2.221 1.28-3.46 2.995-3.46.816 0 1.56.338 2.11 1.041v-.872h1.785v6.343c0 2.572-1.996 3.206-3.67 3.206-1.152 0-2.067-.268-2.925-1.013m8.228-1.743h1.786v-6.793h-1.786v6.793zm-.168-8.592c0-.59.477-1.055 1.054-1.055.59 0 1.069.464 1.069 1.055a1.07 1.07 0 0 1-1.069 1.069 1.065 1.065 0 0 1-1.054-1.069zm3.951 6.889v-3.53h-1.125v-1.56h1.125v-1.856h1.786v1.856h1.378v1.56h-1.378v3.052c0 .437.225.76.618.76.268 0 .52-.098.62-.21l.379 1.363c-.267.239-.745.437-1.49.437-1.252 0-1.913-.647-1.913-1.872m8.325.071v-.843c-.296-.394-.858-.605-1.434-.605-.704 0-1.28.379-1.28 1.026s.576 1.012 1.28 1.012c.576 0 1.138-.196 1.434-.59zm0 1.63v-.716c-.464.562-1.265.885-2.152.885-1.082 0-2.348-.73-2.348-2.249 0-1.604 1.266-2.194 2.348-2.194.915 0 1.703.296 2.152.83v-.857c0-.69-.59-1.14-1.49-1.14-.718 0-1.392.282-1.955.802l-.702-1.252c.828-.745 1.898-1.068 2.966-1.068 1.56 0 2.981.619 2.981 2.573v4.387h-1.8zm3.419-9.378h1.786v9.38h-1.786zm12.712 6.553c0-.59-.422-1.07-1.195-1.07h-2.588v2.139h2.588c.745 0 1.195-.394 1.195-1.069zm-.184-3.81c0-.577-.42-.985-1.096-.985h-2.503v1.969h2.503c.675 0 1.096-.38 1.096-.985zm-5.596 6.636V34.24h4.937c1.785 0 2.7 1.14 2.7 2.39 0 1.168-.733 1.97-1.618 2.152 1.012.155 1.8 1.126 1.8 2.292 0 1.42-.929 2.545-2.729 2.545h-5.09zm13.726.001v-.859a3.225 3.225 0 0 1-2.39 1.028c-1.491 0-2.194-.816-2.194-2.138v-4.824h1.786v4.121c0 .941.493 1.251 1.251 1.251.69 0 1.237-.38 1.547-.773v-4.599h1.786v6.793h-1.786zm2.828-.887l.774-1.294c.506.478 1.504.943 2.348.943.773 0 1.14-.296 1.14-.717 0-1.11-4.023-.197-4.023-2.869 0-1.139.985-2.137 2.784-2.137 1.14 0 2.053.394 2.728.928l-.717 1.265c-.407-.421-1.181-.786-2.011-.786-.646 0-1.068.28-1.068.66 0 .999 4.035.154 4.035 2.897 0 1.251-1.069 2.164-2.953 2.164-1.181 0-2.32-.393-3.037-1.054m7.158.887h1.786v-6.793H147.8v6.793zm-.17-8.592c0-.59.48-1.055 1.056-1.055.59 0 1.069.464 1.069 1.055a1.07 1.07 0 0 1-1.069 1.069 1.066 1.066 0 0 1-1.055-1.069zm8.171 8.592v-4.107c0-.941-.492-1.265-1.25-1.265-.704 0-1.239.394-1.547.787v4.585h-1.787v-6.793h1.787v.873c.435-.507 1.279-1.041 2.376-1.041 1.505 0 2.221.843 2.221 2.165v4.796h-1.8zm6.499-5.499c-1.11 0-1.59.774-1.66 1.45h3.347c-.056-.648-.507-1.45-1.688-1.45m-3.515 2.095c0-1.968 1.463-3.557 3.515-3.557 2.04 0 3.403 1.518 3.403 3.726v.422h-5.048c.127.83.802 1.519 1.955 1.519.576 0 1.364-.24 1.8-.661l.8 1.181c-.674.62-1.742.943-2.797.943-2.068 0-3.628-1.393-3.628-3.573m7.482 2.517l.773-1.294c.506.478 1.505.943 2.35.943.772 0 1.138-.296 1.138-.717 0-1.11-4.022-.197-4.022-2.869 0-1.139.984-2.137 2.785-2.137a4.33 4.33 0 0 1 2.727.928l-.718 1.265c-.407-.421-1.18-.786-2.01-.786-.646 0-1.069.28-1.069.66 0 .999 4.036.154 4.036 2.897 0 1.251-1.068 2.164-2.952 2.164-1.182 0-2.32-.393-3.038-1.054m7.341-1.293c.506.477 1.505.942 2.348.942.774 0 1.14-.296 1.14-.717 0-1.11-4.022-.197-4.022-2.869 0-1.139.984-2.137 2.785-2.137a4.33 4.33 0 0 1 2.727.928l-.718 1.265c-.407-.421-1.18-.786-2.01-.786-.646 0-1.069.28-1.069.66 0 .999 4.036.154 4.036 2.897 0 1.251-1.068 2.164-2.954 2.164-1.18 0-2.319-.393-3.037-1.054l.774-1.294z" fill-rule="nonzero"/></g></svg>
